/* XPM */
static char *door[] = {
/* columns rows colors chars-per-pixel */
"64 64 205 2 ",
"   c #080604",
".  c #141515",
"X  c #151A1B",
"o  c #191C1C",
"O  c #171817",
"+  c #161109",
"@  c #271A0A",
"#  c #201F1E",
"$  c #301504",
"%  c #21211F",
"&  c #282014",
"*  c #39280C",
"=  c #191F20",
"-  c #1C2324",
";  c #1E2728",
":  c #1F292A",
">  c #222423",
",  c #232B2C",
"<  c #2C2C2B",
"1  c #262826",
"2  c #302F2C",
"3  c #32312E",
"4  c #252F30",
"5  c #292F30",
"6  c #263133",
"7  c #2A3335",
"8  c #2B3739",
"9  c #2D3A3C",
"0  c #353432",
"q  c #393734",
"w  c #3A3936",
"e  c #333C3D",
"r  c #3C3C3A",
"t  c #303738",
"y  c #482D0D",
"u  c #4C3515",
"i  c #6C3F03",
"p  c #433E38",
"a  c #4E3C27",
"s  c #784C17",
"d  c #674A19",
"f  c #44413A",
"g  c #524526",
"h  c #684F2D",
"j  c #2F3E40",
"k  c #323F40",
"l  c #344244",
"z  c #3B4445",
"x  c #364649",
"c  c #3A4749",
"v  c #37494B",
"b  c #3B4A4C",
"n  c #3D4E51",
"m  c #3E5254",
"M  c #2F4042",
"N  c #454542",
"B  c #434B4C",
"V  c #4A4D4C",
"C  c #444747",
"Z  c #4D504F",
"A  c #55514F",
"S  c #424F51",
"D  c #425255",
"F  c #4A5253",
"G  c #435659",
"H  c #4B5659",
"J  c #455A5D",
"K  c #4B5B5D",
"L  c #535655",
"P  c #535C5D",
"I  c #5A5B59",
"U  c #514D4A",
"Y  c #636357",
"T  c #465D61",
"R  c #4A5E61",
"E  c #515F61",
"W  c #4C6265",
"Q  c #4D6569",
"!  c #4F696D",
"~  c #466165",
"^  c #526365",
"/  c #5A6364",
"(  c #536669",
")  c #536A6D",
"_  c #5B6A6D",
"`  c #5D6769",
"'  c #546E71",
"]  c #5B6E71",
"[  c #567175",
"{  c #5B7275",
"}  c #5B767A",
"|  c #5D797D",
" . c #567479",
".. c #4E6E73",
"X. c #636B6B",
"o. c #696967",
"O. c #77786A",
"+. c #666F70",
"@. c #627275",
"#. c #6B7273",
"$. c #627679",
"%. c #6C7778",
"&. c #637A7D",
"*. c #6A7A7D",
"=. c #727B7C",
"-. c #717271",
";. c #6E706F",
":. c #596054",
">. c #835927",
",. c #9B6A32",
"<. c #9B6525",
"1. c #AE7531",
"2. c #AA7518",
"3. c #C07927",
"4. c #7A8278",
"5. c #BF9A37",
"6. c #CD892A",
"7. c #8B8C78",
"8. c #D2B249",
"9. c #E6C94D",
"0. c #5E7C81",
"q. c #637D81",
"w. c #6A7E81",
"e. c #737F81",
"r. c #658185",
"t. c #6B8285",
"y. c #668589",
"u. c #6C8689",
"i. c #6C898D",
"p. c #738285",
"a. c #7C8485",
"s. c #728689",
"d. c #788688",
"f. c #738A8D",
"g. c #7C8B8D",
"h. c #6D8D91",
"j. c #748D91",
"k. c #7A8E91",
"l. c #6F9296",
"z. c #759195",
"x. c #7C9295",
"c. c #76959A",
"v. c #7C9699",
"b. c #7C999D",
"n. c #77989C",
"m. c #7E9DA1",
"M. c #858D8D",
"N. c #818F91",
"B. c #849294",
"V. c #829699",
"C. c #85999C",
"Z. c #8A9B9D",
"A. c #899596",
"S. c #929C9D",
"D. c #969796",
"F. c #95988D",
"G. c #839EA2",
"H. c #8A9EA1",
"J. c #929FA0",
"K. c #85A2A5",
"L. c #8DA1A4",
"P. c #86A4A8",
"I. c #8AA6AA",
"U. c #8DA9AD",
"Y. c #92A3A5",
"T. c #9AA4A5",
"R. c #94A6A9",
"E. c #9BA7A9",
"W. c #95A9AC",
"Q. c #9BAAAD",
"!. c #92AEB1",
"~. c #9EAEB1",
"^. c #95B2B5",
"/. c #9AB2B5",
"(. c #9CB5B9",
"). c #9FB8BB",
"_. c #A1ACAE",
"`. c #A1AFB1",
"'. c #A4B2B4",
"]. c #AAB4B5",
"[. c #A3B6B9",
"{. c #A9B7B9",
"}. c #A4BABD",
"|. c #ACBABC",
" X c #B2BCBD",
".X c #B8BBBB",
"XX c #A6BEC1",
"oX c #ABBEC0",
"OX c #B3BFC0",
"+X c #ABC2C4",
"@X c #AFC7CA",
"#X c #B4C2C4",
"$X c #BAC3C4",
"%X c #B2C6C9",
"&X c #BBC7C8",
"*X c #B5CACC",
"=X c #BCCACB",
"-X c #BCCED1",
";X c #BFD0D2",
":X c #C3CCCD",
">X c #C1CFD1",
",X c #C4D2D4",
"<X c #C9D6D8",
"1X c #D2DEDF",
"2X c #D2DEE0",
/* pixels */
"T.:X$X$X$X$X X X|.]._._.].]._.E.'.T._.T.E.E.T.T.E.E.T.T.T.T.Y.S.Z.T.J.Z.Z.S.Y.S.J.S.J.S.S.S.Y.S.S.S.S.S.T.E.S.A.T.E.T.S.Y.T._.+.",
"`.U.G.U.!.}.[.|.~.K.U.b.I.I.j.q.f.&.i.j.x.i.q.q.t.u.&.r.j.v.f.$.] u.z.q.r.r.t.&.&.u.z.&.{ f.z.t.{ | r.i.i.u.r.] &.j.b.j.z.q.j.K ",
"_.j.r.h.n.U.U.$XD.W h.v.b.c.| S.I l  . .v.u.r.S.o.l } u.u.r.! S.N n q.Q { r.Q d.o.l  .W Q q.} M.L l  .| | } Q d.o.9 r.} ' G  .b ",
"|.K. .} c.W.(.A.V ( K.G.W.I.z.P < J | j.v.j.z.^ t R r.i.u.} ( D > J } ( {  .Q D < l Q J ! q.y.P > J 0.| i.q.! D < b r.} Q T  .G ",
"|.K.Q | n.(.%X}.L.m.I.!./.W.I.b.j.i.| j.h.z.v.q.&.i.} z.u.| | q.' ' ' ' }  .' ~ R W Q J ! | u.| Q r.} r.h.u.q.' Q  .|  .' | 0.G ",
"'./.h.n.^.x.@.@.( G G D F S b D D l k b l l b l 9 9 9 b c l l c l 9 k 8 9 9 9 6 6 4 6 6 8 k c c l c l l c c c l l 6 *.}  .}  .n ",
"`.^.I.j.^.v.b l 8 , , , - - > - - o X o X . o X X - o = - - = X X - o X X X X X X X X o o - - - - - - - - - = = X , Z.q.T ! ' 9 ",
"{.U..XP b.v.K ^ D b c k t t t t 8 , ; : : - - - - , , 8 8 , , , , , , - - , - - - - - 8 , 6 t 8 4 , , , , - - - = 8 Y. .s.X.m l ",
"{.).` K (.C.^ ( W R K D B b c l 9 9 9 9 , , 6 , 6 8 8 9 8 6 , 6 4 4 6 , , , ; - : - ; 8 8 6 8 8 8 6 4 , 6 , , ; - 8 Y.&./ 0 v m ",
"|.XXI.^.*Xz.K @.` $.s.*.@.` K D l b b b 8 9 c 9 t b k c c k 9 t 9 t k 9 9 9 6 8 8 4 8 l l k 9 l l l 9 9 9 9 8 8 8 8 Y.u.J m T b ",
"|.+X+X+X@Xv.K @.( u.G.C.k.s.*.^ n G G D j b G b D G D G K D b c l l b S l 9 6 9 l l b D b b D D m G c l l l 9 9 l k R.G.l.i.! b ",
"|.+X+X-X*XK.^ ] { r.b.b.z.f.t.{ R ( ( W b G G n G K ^ ( ^ ^ W K J D b n D l 9 l b b G m G K ( ( J J m D n n b b b c E.P.| | | G ",
" X}.+X*X@Xz.K ^ w.x.j.v.L.C.k.&.( ( @.] R K b b G G R ( ^ W ^ ^ @.` D b m v v l b G J n J ( W ( W W G J R ^ ^ K K b E.I. .| y.W ",
"|.%XXX*X-Xj.b K *.C.v.G.L.G.Y.r.W W { W J ( m m J R G ( ( R R ` ] ] R G D b l m J R W m ( $.J m W ' R J R ^ K H K D E.P.|  .y.J ",
"|.%X}.*X<Xv.b ( $.x.K.U.c.v.v.u.J G ' ( J R n J W ( R ^ ^ ] W { *.w.( W R b v R J W ( Q ( W G D R { ( W J ( ^ G E P ].I. . .h.J ",
"|.+X:XA.@XL.G ^ { t.W./.K.L.L.q.l m { ( m W ^ D m J W J ( *.&.*.t.w.$.{ ( W J W J W W ( ( Q W ( ( ( { { W W ( ^ ^ K _.b.f.@. .m ",
" X%XM.P %XW.K ^ { v.W./.oX|.L.( l b m G R { { J n J ' ( ( s.g.s.w.t.g.s.s.s.{ W R J W G { q.u.t.&.$.w.&.` ` ( ` ` K `.h.d.A n D ",
" X;XY.[.1XY.E @.s.W.W.+X=X[.c.J l v v J ( $.] J D J R ( R &.x.k.&.f.A.k.k.A.q.Q G W &.} f.x.B.B.f.q.t.w.@.{ @.` ( K ].XX{ b q.J ",
"$X,X,X,X1XE.` *.s.Y.K.}.#X}.x.m n b J ( ' &.{ ( J W T { &.&.f.k.{ s.t.f.C.H.x.j.$.} u.f.Z.C.A.x.x.k.f.{ ( $.*.@.` K ].+X/.c.i.W ",
"$X,X,X1X1X'.` s.g.R././.=X#Xx.' ( T Q { { s.w.' W ' { f.x.f.A.x.{ u.f.v.C.C.C.C.x.x.f.x.H.Z.C.j.x.x.f.] *.s.w.@.` D ].%X/.z.h.W ",
"OX,X=X,X1X'.` s.Z.'.}.}.&X=XW.b.v.s.q.&.{ w.&.W T ( { j.x.x.C.x.u.u.j.L.Y.H.Z.x.j.C.H.L.Y.R.H.v.C.A.x.t.g.M.s.w.$.K E.}.|./.!.( ",
"OX,X=X>X1X].X.e.A.].#X#X&X#X~.L.Y.H.f.{ { q.' Q ' { &.A.C.| r.C.x.C.C.E.Y.H.Y.Z.x.C.L.Y.E.E.R.H.L.Z.A.k.k.B.g.s.d.X.].^.U./.}.s.",
"$X,X[.[.2X].` ] B.{.$X:X#X[./.E.Z.A.k.{ &.q.} &.t.q.x.'.C.u.f.v.j.x.A.R.H.R.`.R.Y.R.W.W.E.E.Y.Y.Y.R.Y.Z.B.k.N.s.*.`  X}.G.[.%Xg.",
"$X&X.XX.#XE.^ $.N.|.&X:X#X|.'.C.j.j.A.x.u.t.u.f.&.} j.C.A.L.A.u.t.f.x.E.E.E.`.'.'.~.E.W.E.R.L.E.E.E.Y.Z.k.t.&.{ ^ K {.XX].M.Y.N.",
" X>X#.L &XZ./ s.w.C.OX,X=X#XW.A.x.s.C.H.f.q.t.x.f.f.C.x.C.Z.x.Y.v.x.x.'.~.~.E.E.E.~.'.~.'.E.E.`.E.`.E.Z.B.s.@.` ( S E.U.*.V d.s.",
" X<X|.#X,XB.P *.d.Y.L.#X:X$XL.v.A.f.H.E.L.E.E.Z.C.L.C.E.E.E.v.W.H.L.Y.{.'.`.|.'.'.|.#X|.|.|.|.|.'.'.E.T.J.Z.s.] R K _.P.' w.}.w.",
" X>X=X,X,XA.F @.=.Z.'. X#X X~.L.'.H.Y.|. X$X XE.k.L.A.E.#X'.A.H.Z.R.W.E.'.{.B.=.=.%.e.=.%.=.=.=.*.A.E.E.T.B.t.` K D _.(.m.!.K.( ",
" X=X|.&X,XM.B #.s.B.'.OXOX~.~.R.L.H.H.E.R.'.`.L.x.Z.f.L.[.C.H.C.H.{.E.Y.~.E.V r r r N f N N r w o F T._.`.T.S.t.( b Y.I.r.U.z.m ",
"].#X'.#X,Xd.c +.*.B.Y.|.'.C.R.{.C.C.Y.`.'.'.x.t.C.x.q.f.'.~.E.E.L.~.Y.C.|.Y.B N N > t 0 r < N # . V E.S.d.=.d.&.^ S J.m.0.h.i.l ",
"].#X|.=X=Xs.B #.s.g.Z.'.E.Y.E.OXL.A.R.'.{.'.x.f.C.x.&.j./.|.W.R.v.~.{.H.|.`.Z f 2 # t 0 w < 3 o . H F.s s d u r ^ D Z.b.i.| ' b ",
" X>X|.$X>Xs.B %.=.d.x.E.'.L.v.|.E.f.Y.~.`.~.L.L.R.f.w.~. X].|.{.C.{.E.~.C.Y.L w O > t 3 t < % < . H ;.d 9.<.@ O E K Y.m.0. .| b ",
".X:X.X#.'.%.c #.%.` @.C.'.E.R.'.H.C.W.E.'.OX XE.Y.E.E.$X:X#X$X$XE.`.A.W.Z.A.F t > < < < r r w 1 . V k.Y 9.s   X ` R Y.u.s.+.' J ",
" X#X;.r Y.@.t E ^ E ` *.Y.H.H.Y.x.L.E.W.~.|.|.Z.L.|.{.|.$X X|.$X'.'.R.'.R.f.V < % 3 p p f p 2 > O F E.7.8.y o o c F Y.q.=.N ( { ",
"|.#Xs.s.z.^ t H K E ] f.C.x.x.L.s.A.k.k.H.E.Y.R.|.'.R.'.OX'.E.`.'.'.L.~.|.Y.V 1 X g >.>.,.g > 3 o V R.7.8.y c 8 , c E.(.q.K z.W ",
"].I.G.G.! l 9 F K K ` f.G.H.R.C.s.x.u.x.C.W.L.W.$X~.C.E. XE.Y.W.R.H.C.R.|._.V 1 X g s $ <.d - p o B R.7.8.y B c > c E././.+XI.] ",
"J.] j.G.' l , B K ^ &.f.R.'.R.A.v.x.L.E.E.W.'.~.'.~.E.R.'.L.R.'.A.H.H.H.'.Y.c 2 X g 6.* 6.>., 0 . B R.7.8.u c t - D '.W.L.oXU.{ ",
"A.( | } Q b , c H K $.A.Y.~.R.'.'.L.'. X|.E.`.E.Y.'.'.L.x.x.E.'.E.E.A.i.G.$.c N > h 3.s 1.h < 2 . B Y.O.5.y c k > B '.+X[.(.!.{ ",
"B.} ( T R l , t c S ( &.x.L.H.{.#X{.|.OX|.'.R.E.`.~.R.j.t.C.R.C.C.C.H.q.s.( c V t h 1.,.,.a < 0 o C H.O.2.$ b k - D {.(./.I.P.W ",
"g.{ G m m l - 8 l b ^ $.f.L.L.R.|.{.|. X|.'.L.Y.'.'.W.j.A.H.j.t.u.{ { ' ' ( c N r r p p 0 2 < w o c H.Y i + B c - b '.%Xc.l.l.( ",
"N.{ D.t M k , 8 t n K &.} Z.R.Y.W.'.|.{.'.E.W./.{.'.'.Y.C.v.&.{ | ( J ( ' ( c r t f p r r t w r O B 4.u @   & % , B '.+XL.*.| { ",
"B.] Z > l l ; 8 k b J &.} f.v.x.H.E.'.'.~.E.E.|.`.`.'.Y.C.j.q.r.&.J J ( ( Q r t < r r w w t w r . b :.*     +   - P |.}.T.U ( s.",
"B.} m n G 9 ; 6 l b D ' | t.x.j.H.E.E.R.R.E.E.`.R.R.E.W.Y.j.q.t.t.} R Q Q W t N L 3 0 t 0 r I t . c &.t o .   . < P  X+Xj.^ 0.} ",
"g.q.! J m 9 , 8 t l b J ( u.C.H.Y.L.R.H.Y.E.E.L.C.H.Y.H.Z.x.x.f.q.r.( '  .Q c U N < r t r r A > o c u.s.e.#.t o 8 P $XXX^.@X^.{ ",
"g.&.W J G 9 - 8 9 l J W ' k.x.A.H.C.Y.L.L.H.L.C.x.Z.A.A.x.f.f.j.&.} r.&.( R 8 > . o % # # % . O . c u.f.B.Z.d.t 8 / $X=X(.#X*X$.",
"B.} Q J G 9 - 4 8 b G ( q.w.f.k.j.A.H.Z.Z.C.A.x.v.A.x.C.x.f.r.| q.f.i.{ ' Q 6 X X X X X . X - - - B f.f.t.s.k.e.@.#.$X,X}.*X-X*.",
"A.q.Q ' J 9 - 4 8 b ^ &.f.q.k.j.f.j.C.Z.Z.A.C.k.f.f.Z.x.x.j.t.f.f.j.u.r.{ G R J R W G m ^ m W $.*.w.f.f.f.f.f.s.t.` $X-XoXoXXX*.",
"Z.t.~ ! J 9 - , t D ` w.$.{ &.f.f.f.Z.Y.C.x.A.A.f.f.Z.x.u.x.&.u.f.u.f.u.&.T W 0.{ } } u.q.i.x.C.C.z.u.f.g.s.w.&.{ E  X#X}./.(.&.",
"N.&.M.c T l - 4 l D ^ @.] ] { t.u.t.f.j.x.k.s.x.k.f.k.C.u.t.t.' t.f.q.q.} T J ' W ( | &.' q.u.r.u.f.q.{ &.&.@.] ] K  X}./.g.h.( ",
"B.&.Y , G D , 6 t S K ( @.&.&.&.t.&.w.t.s.f.t.s.u.t.x.x.t.' u.' ( i.Q Q Q Q ( Q { ' W G R W } | | t.q.{ ] ] ] ( ] K '.I.S.I T ( ",
"B.u.m G ' D 5 8 t B G ^ { &.*.&.&.{ &.{ q.t.t.w.t.q.f.k.t.W W | ( { ( G G W Q Q ' Q W R J Q { } | } t.&.] ( ( ^ ` H E.U.Q l q.W ",
"N.&. .| } b , 4 8 l D ^ ` ` *.&.( ( ] ( { $.&.t.w.q.q.t.} W D ( ' ( ( W J Q ( W Q R G D R W W &.&.( ( ( R R ^ ^ ^ b H.h. .r.h.G ",
"B.u.} r.r.n - , 8 9 b H R R ` ` J J R R ( { ] { $.{ &.( ( ( n W ( W W J D W W J J D D K ( W W { W D D D D D K K D l Y.q. .| q.n ",
"Z.j.r.r.q.m - , , 6 c D n D R G b n K R W ` ( ^ ( ( ] J J D l G K G D b n R D D l l D R ^ ^ J K G b b l b b n D b l Z.u.| q.y.n ",
"N.r.i.q.| D - - - 4 9 b D n D n n b K R ^ ^ ^ ^ K K W G b n b b D n D D b G D b l l D b c K b b b b l l l b c c c 9 B.u.Q Q } b ",
"N.u.} f.G.R , , - , 9 b S b b l n K ^ ( ` ` K J G D D m l l b b l D b n c l b b l 9 n n l S S b l l l l l l b l l 8 M.u.~ J  .b ",
"Z.f.T.L z.` , , , , 9 c D b l l n K ^ E E ^ D b D b n K D b l b 9 c b D b l l k 9 8 b b l b b b l c c l k l c l k 8 B.q.e./ m l ",
"Z.f.I t r.W - - - , 9 k b c j l b D K G m D b l b l v D b 9 9 k 9 8 l b l j 9 9 9 k k l l l c l t l l k 9 9 k 9 9 8 B.&.X.r j v ",
"E.I.| u.v.W C C B B B S F F F F P / X.` / / P E ^ P P P P F F F D F F F S F B F F B B B B c B B c B B C c c c c c c N.$.v 6 Q b ",
"E.I.G.W.L.E.|.'.'.'.`.{.'.'. XOX&X&X=X$X=X#XOX|.|.|.|.#X|.'.'.'.|.|.{.'.`.`.E._.'.`.E._.E.E._.E.E.E.E.E.E.E.E.E.E.T.J.( ( Q ' b ",
"E.I.I.W.L.b.i.r.q.| | u.b.b.b.b.I.U.^.m.m.c.h.y.} y.0.h.z.0.q.r.u.j.q.| q.q.q.q.{ r.| | q.} } ' W } r.r.| q.u.| } } ( m J J W l ",
"E.I.m.W.K.h...A.%.v } r.i.z.h._.o.&.P.b.r.l.h.J.o.n '  .r.r. .S.L W Q Q  .} } B.o.m |  .| ' m d.L D | ' ( } | g.o.l Q b m J Q l ",
"E.m.h.P.K.h.0.` t l | z.y.i.h./ t ( b.K.z.q.y./ t l ! r.v.j.' I 1 J { (  .&.' P t c } (  .W T B 1 D |  .} &.r.X.t 9 R b n J ( l ",
"'.^.K.!.U.m.i.| T ' 0.b.h.0.r.} ' c.b.c.c.y.y.! J  .} j.G.i.| W J  .} } |  .' ' J Q { Q ( ( W v b { 0.'  .r.u.! D } ! m m J ! l ",
"=.] W ` ] ^ J W G v n J G D b J J G J D D n n b D b l D K S b l l l b l b b k b D 9 l 9 9 l 9 9 l l l k b b b 9 b n l 8 6 8 j 6 "
};
