/* XPM */
static char *_37_cursor[] = {
/* columns rows colors chars-per-pixel */
"12 12 6 1 ",
"  c None",
". c #00FD00",
"X c #00FE00",
"o c #01FE00",
"O c green",
"+ c #01FF00",
/* pixels */
"     OOO    ",
"     OOO    ",
"    OOOO    ",
"    OOOOO   ",
"   OOOOOOO  ",
"    OOOOOOOO",
"   OOOOOOOOO",
"   OOOOOOO  ",
"  OOOO O    ",
"  OO        ",
"            ",
"            "
};
