/* XPM */
static char *_7_cursor[] = {
/* columns rows colors chars-per-pixel */
"12 12 5 1 ",
"  c None",
". c #00FE00",
"X c #01FE00",
"o c green",
"O c #01FF00",
/* pixels */
"  OOO       ",
"  OOO       ",
"  OOOO      ",
"   OOOOO    ",
"  OOOOOO    ",
"  OOOOOOO   ",
"  OOOOOOOOO ",
"OOOOOOOOOOO ",
"OOOOOO O    ",
"OO          ",
"            ",
"            "
};
