/* XPM */
static char *_23_cursor[] = {
/* columns rows colors chars-per-pixel */
"12 12 5 1 ",
"  c None",
". c #00FE00",
"X c #01FE00",
"o c green",
"O c #01FF00",
/* pixels */
"            ",
"            ",
"  oo        ",
"  oooo o    ",
"   ooooooo  ",
"   ooooooooo",
"    oooooooo",
"   ooooooo  ",
"    ooooo   ",
"    oooo    ",
"     ooo    ",
"     ooo    "
};
