/* XPM */
static char *_38_cursor[] = {
/* columns rows colors chars-per-pixel */
"12 12 6 1 ",
"  c None",
". c #00FD00",
"X c #00FE00",
"o c #01FE00",
"O c green",
"+ c #01FF00",
/* pixels */
"            ",
"            ",
"   OO       ",
"   OOOO     ",
"   OOOOOO   ",
"   OOOOOOO  ",
"   OOOOOOOOO",
"   OOOOOOOOO",
"    OOOOOOO ",
"   OOOOO    ",
"    OO      ",
"    OOO     "
};
