/* XPM */
static char *_99_cursor[] = {
/* columns rows colors chars-per-pixel */
"12 12 5 1 ",
"  c None",
". c #00FE00",
"X c #01FE00",
"o c green",
"O c #01FF00",
/* pixels */
"            ",
"       O    ",
"       OO   ",
"     OOOO   ",
"   OOOOOO   ",
"  OOOOOOO   ",
"OOOOOOOOO   ",
"OOOOOOOOO   ",
"OOOOOOOO    ",
"    OOOOO   ",
"      OO    ",
"      OOO   "
};
