/* XPM */
static char *_07_cursor[] = {
/* columns rows colors chars-per-pixel */
"12 12 6 1 ",
"  c None",
". c #00FD00",
"X c #00FE00",
"o c #01FE00",
"O c green",
"+ c #01FF00",
/* pixels */
"            ",
"            ",
"       OOO  ",
"     OOOO   ",
"   OOOOOO   ",
" OOOOOOOO   ",
"OOOOOOOO    ",
"OOOOOOOOO   ",
" O OOOOO    ",
"    OOOO    ",
"     OOO    ",
"     OOO    "
};
