/* XPM */
static char *_5_cursor[] = {
/* columns rows colors chars-per-pixel */
"12 12 5 1 ",
"  c None",
". c #00FE00",
"X c #01FE00",
"o c green",
"O c #01FF00",
/* pixels */
"      ooo   ",
"      ooo   ",
"    ooooo   ",
"ooooooooo   ",
"ooooooooo   ",
" oooooooo   ",
"  oooooo    ",
"   oooooo   ",
"     ooo    ",
"     o oo   ",
"       o    ",
"            "
};
